<svg xmlns="http://www.w3.org/2000/svg" xmlns:xlink="http://www.w3.org/1999/xlink" width="50" height="50" viewBox="0 0 50 50">
  <defs>
    <path id="icon-arrow-right-a" d="M34.5,23.4031701 L20.25,23.4031701 L25.0214981,18.4242154 C25.5652444,17.8568279 25.5556926,16.9588625 25,16.4031699 L25,16.4031699 C24.4624402,15.86561 23.5908836,15.86561 23.0533238,16.4031699 C23.0445569,16.4119367 23.035909,16.4208215 23.0273822,16.429822 L15,24.9031701 L23.0273822,33.3765177 C23.5502224,33.9284047 24.421461,33.9519516 24.9733479,33.4291114 C24.9823483,33.4205846 24.9912332,33.4119367 25,33.4031699 L25,33.4031699 C25.5556926,32.8474772 25.5652444,31.9495118 25.021498,31.3821244 L20.25,26.4031701 L34.5,26.4031701 C35.3284271,26.4031701 36,25.7315973 36,24.9031701 L36,24.9031701 C36,24.074743 35.3284271,23.4031701 34.5,23.4031701 Z"/>
  </defs>
  <use fill-rule="evenodd" transform="rotate(-180 25.5 24.903)" xlink:href="#icon-arrow-right-a"/>
</svg>
